<?xml version="1.0" encoding="iso-8859-1"?>
<!-- Generator: Adobe Illustrator 20.1.0, SVG Export Plug-In . SVG Version: 6.00 Build 0)  -->
<svg xmlns="http://www.w3.org/2000/svg" xmlns:xlink="http://www.w3.org/1999/xlink" version="1.1" id="&#1057;&#1083;&#1086;&#1081;_1" x="0px" y="0px" viewBox="0 0 64 64" style="enable-background:new 0 0 64 64;" xml:space="preserve">
<linearGradient id="SVGID_1__44008" gradientUnits="userSpaceOnUse" x1="45" y1="12.1667" x2="45" y2="22.668" spreadMethod="reflect">
	<stop offset="0" style="stop-color:#6DC7FF"/>
	<stop offset="1" style="stop-color:#E6ABFF"/>
</linearGradient>
<circle style="fill:url(#SVGID_1__44008);" cx="45" cy="17" r="4"/>
<linearGradient id="SVGID_2__44008" gradientUnits="userSpaceOnUse" x1="32" y1="5.5" x2="32" y2="59.1227" spreadMethod="reflect">
	<stop offset="0" style="stop-color:#1A6DFF"/>
	<stop offset="1" style="stop-color:#C822FF"/>
</linearGradient>
<path style="fill:url(#SVGID_2__44008);" d="M56,17c0-6.065-4.935-11-11-11c-5.933,0-10.781,4.722-10.99,10.605  C32.376,16.205,30.697,16,29,16C17.421,16,8,25.421,8,37s9.421,21,21,21s21-9.421,21-21c0-2.141-0.323-4.242-0.954-6.263  C52.298,27.906,56,22.729,56,17z M45,8c4.963,0,9,4.037,9,9c0,7.573-7.605,13.924-8.996,14C43.605,30.924,36,24.573,36,17  C36,12.037,40.037,8,45,8z M44,37c0,5.332-2.798,10.019-7,12.679V45c0-1.103-0.897-2-2-2h-3c-0.552,0-1-0.448-1-1v-2  c0-0.552,0.448-1,1-1h5c1.103,0,2-0.897,2-2v-2c0-1.103-0.897-2-2-2h-3c-0.552,0-1-0.448-1-1v-9.459  c0.858,0.237,1.697,0.55,2.51,0.942c1.963,4.281,5.417,7.632,7.772,8.93C43.756,33.89,44,35.432,44,37z M20,31h4  c0.552,0,1,0.448,1,1v3c0,0.552-0.448,1-1,1h-1c-1.654,0-3,1.346-3,3v4c0,0.552-0.448,1-1,1h-3.261C14.631,41.909,14,39.527,14,37  c0-3.929,1.52-7.507,4-10.184V29C18,30.103,18.897,31,20,31z M19,46c1.654,0,3-1.346,3-3v-4c0-0.552,0.448-1,1-1h1  c1.654,0,3-1.346,3-3v-3c0-1.654-1.346-3-3-3h-4v-3.992C22.509,23.12,25.626,22,29,22c0.676,0,1.342,0.049,2,0.136V32  c0,1.654,1.346,3,3,3h3v2h-5c-1.654,0-3,1.346-3,3v2c0,1.654,1.346,3,3,3h3v5.744C33.161,51.55,31.133,52,29,52  c-4.897,0-9.253-2.359-11.992-6H19z M48,37c0,10.477-8.523,19-19,19s-19-8.523-19-19s8.523-19,19-19  c1.738,0,3.452,0.247,5.111,0.709c0.095,0.755,0.247,1.498,0.451,2.223C32.783,20.314,30.92,20,29,20c-4.163,0-7.979,1.507-10.938,4  H18v0.054c-3.667,3.121-6,7.765-6,12.946c0,9.374,7.626,17,17,17s17-7.626,17-17c0-1.382-0.167-2.747-0.494-4.075  c0.509-0.13,1.139-0.433,1.838-0.888C47.779,33.647,48,35.309,48,37z"/>
</svg>
